<svg width="20" height="20" viewBox="0 0 20 20" fill="none" xmlns="http://www.w3.org/2000/svg">
<path fill-rule="evenodd" clip-rule="evenodd" d="M9.75 0C4.36522 0 0 4.36522 0 9.75C0 15.1348 4.36522 19.5 9.75 19.5C15.1348 19.5 19.5 15.1348 19.5 9.75C19.4943 4.36758 15.1324 0.0056839 9.75 0ZM10.5 17.9653V12H12.75C13.1642 12 13.5 11.6642 13.5 11.25C13.5 10.8358 13.1642 10.5 12.75 10.5H10.5V8.25C10.5 7.42157 11.1716 6.75 12 6.75H13.5C13.9142 6.75 14.25 6.41421 14.25 6C14.25 5.58579 13.9142 5.25 13.5 5.25H12C10.3431 5.25 9 6.59315 9 8.25V10.5H6.75C6.33579 10.5 6 10.8358 6 11.25C6 11.6642 6.33579 12 6.75 12H9V17.9653C4.60788 17.5644 1.30787 13.7799 1.50854 9.37409C1.70922 4.96827 5.33962 1.49947 9.75 1.49947C14.1604 1.49947 17.7908 4.96827 17.9915 9.37409C18.1921 13.7799 14.8921 17.5644 10.5 17.9653Z" fill="#919CC9"/>
</svg>
