<svg width="21" height="18" viewBox="0 0 21 18" fill="none" xmlns="http://www.w3.org/2000/svg">
<path fill-rule="evenodd" clip-rule="evenodd" d="M20.1921 2.71349C20.076 2.43321 19.8026 2.25043 19.4993 2.25037H16.6465C15.8351 0.870088 14.3596 0.0161574 12.7586 0.000366211C11.574 -0.015172 10.4332 0.447906 9.59458 1.28474C8.73146 2.13175 8.24644 3.29107 8.24927 4.50037V5.0713C4.47489 4.07568 1.38771 1.00537 1.35489 0.972554C1.14945 0.765296 0.84245 0.696022 0.567916 0.794974C0.293382 0.893927 0.101172 1.14314 0.0752051 1.4338C-0.328857 5.91412 0.972392 8.91224 2.1377 10.6382C2.7059 11.4914 3.39713 12.2559 4.18896 12.9069C2.76114 14.5504 0.513018 15.4138 0.488643 15.4232C0.274243 15.5035 0.108263 15.6773 0.0379498 15.8952C-0.0323634 16.1131 0.000691414 16.3511 0.127705 16.5416C0.198018 16.6466 0.479268 17.0151 1.16646 17.3591C2.01583 17.7847 3.13802 18.0004 4.49927 18.0004C11.1246 18.0004 16.6605 12.8985 17.2258 6.33412L20.0299 3.53099C20.2443 3.31637 20.3083 2.99371 20.1921 2.71349ZM15.9733 5.47068C15.8447 5.59958 15.7674 5.77085 15.7558 5.95255C15.3743 11.8672 10.4318 16.5004 4.49927 16.5004C3.50927 16.5004 2.81177 16.3691 2.32239 16.2116C3.40145 15.6257 4.90614 14.6179 5.87364 13.1666C5.98842 12.9941 6.02673 12.7819 5.9795 12.5801C5.93226 12.3784 5.80369 12.2052 5.62427 12.1016C5.5802 12.0763 1.50771 9.63224 1.49927 3.10162C2.99927 4.32037 5.74146 6.2113 8.87458 6.73818C9.09192 6.77482 9.31437 6.71401 9.48284 6.5719C9.65132 6.42979 9.74875 6.22077 9.74927 6.00037V4.50037C9.74757 3.69212 10.0721 2.91739 10.6493 2.35162C11.2026 1.79723 11.9567 1.4902 12.7399 1.50037C13.9268 1.51537 15.0358 2.23912 15.4999 3.3013C15.6194 3.57419 15.8892 3.75045 16.1871 3.75037H17.6871L15.9733 5.47068Z" fill="#919CC9"/>
</svg>
